# xmcd
#
# Track frame offsets: 
#        165
#        21224
#        48048
#        69955
#        74624
#        97108
#        125525
#        155388
#        181823
#        222938
#        247522
#        282762
#        302006
#
# Disc length: 4124 seconds
#
# Revision: 7
# Processed by: cddbd v1.5.2PL0 Copyright (c) Steve Scherf et al.
# Submitted via: ExactAudioCopy v0.90b4
#
DISCID=aa101a0d
DTITLE=Kanye West - My Beautiful Dark Twisted Fantasy
DYEAR=2010
DGENRE=Hip-Hop
TTITLE0=Dark Fantasy
TTITLE1=Gorgeous (Feat. KiD CuDi, Raekwon)
TTITLE2=Power
TTITLE3=All Of The Lights (Interlude)
TTITLE4=All Of The Lights
TTITLE5=Monster (Feat. Jay-Z, Rick Ross, Nicki Minaj, Bon Iver)
TTITLE6=So Appalled (Feat. Swizz Beatz, Jay-Z, Pusha T, Prynce Cy Hi, 
TTITLE6=The RZA)
TTITLE7=Devil In A New Dress (Feat. Rick Ross)
TTITLE8=Runaway (Feat. Pusha T)
TTITLE9=Hell Of A Life
TTITLE10=Blame Game (Feat. John Legend)
TTITLE11=Lost In The World (Feat. Bon Iver)
TTITLE12=Who Will Survive In America
EXTD=YEAR: 2010
EXTT0=
EXTT1=
EXTT2=
EXTT3=
EXTT4=
EXTT5=
EXTT6=
EXTT7=
EXTT8=
EXTT9=
EXTT10=
EXTT11=
EXTT12=
PLAYORDER=
